# xmcd CD database file
#
# Track frame offsets:
#	150
#	13580
#	29037
#	48342
#	66337
#	80990
#	99375
#	127335
#	151120
#	158772
#	172507
#	196110
#	213732
#
# Disc length: 3198 seconds
#
# Revision: 0
# Processed by: cddbd v1.4PL0 Copyright (c) Steve Scherf et al.
# Submitted via: CDex 1.51
#
DISCID=ad0c7c0d
DTITLE=Ian Shaw - Taking It To Hart
DYEAR=1995
DGENRE=Jazz
TTITLE0=I Wish I Were In Love Again
TTITLE1=Where or When
TTITLE2=Have You Met Miss Jones
TTITLE3=I Could Write a Book
TTITLE4=My Romance - Any Old Place With You
TTITLE5=Little Girl Blue
TTITLE6=I Don't Know What Time It Was
TTITLE7=My Funny Valentine
TTITLE8=Blue Moon
TTITLE9=This Can't Be Love
TTITLE10=It Never Entered My Mind
TTITLE11=This Funny World
TTITLE12=With a Song in My Heart
EXTD=YEAR: 1995
EXTT0=
EXTT1=
EXTT2=
EXTT3=
EXTT4=
EXTT5=
EXTT6=
EXTT7=
EXTT8=
EXTT9=
EXTT10=
EXTT11=
EXTT12=
PLAYORDER=
